<svg xmlns="http://www.w3.org/2000/svg" viewBox="0 0 800 450" width="800" height="450">
  <defs>
    <linearGradient id="bg" x1="0" y1="0" x2="1" y2="1">
      <stop offset="0%" stop-color="#080812"></stop>
      <stop offset="100%" stop-color="#12082a"></stop>
    </linearGradient>
    <linearGradient id="glow1" x1="0" y1="0" x2="1" y2="1">
      <stop offset="0%" stop-color="#7b5cf6" stop-opacity="0.5"></stop>
      <stop offset="100%" stop-color="#00d4c8" stop-opacity="0"></stop>
    </linearGradient>
    <linearGradient id="glow2" x1="1" y1="0" x2="0" y2="1">
      <stop offset="0%" stop-color="#00d4c8" stop-opacity="0.3"></stop>
      <stop offset="100%" stop-color="#7b5cf6" stop-opacity="0"></stop>
    </linearGradient>
    <filter id="blur1">
      <feGaussianBlur stdDeviation="40"></feGaussianBlur>
    </filter>
    <filter id="blur2">
      <feGaussianBlur stdDeviation="25"></feGaussianBlur>
    </filter>
    <filter id="glow">
      <feGaussianBlur stdDeviation="2" result="blur"></feGaussianBlur>
      <feMerge><feMergeNode in="blur"></feMergeNode><feMergeNode in="SourceGraphic"></feMergeNode></feMerge>
    </filter>
  </defs>

  
  <rect width="800" height="450" fill="url(#bg)"></rect>

  
  <ellipse cx="200" cy="180" rx="200" ry="160" fill="#7b5cf6" opacity="0.12" filter="url(#blur1)"></ellipse>
  <ellipse cx="620" cy="300" rx="180" ry="140" fill="#00d4c8" opacity="0.10" filter="url(#blur1)"></ellipse>
  <ellipse cx="400" cy="225" rx="120" ry="100" fill="#f060b0" opacity="0.06" filter="url(#blur2)"></ellipse>

  
  <line x1="100" y1="0" x2="100" y2="450" stroke="rgba(255,255,255,0.03)" stroke-width="1"></line><line x1="175" y1="0" x2="175" y2="450" stroke="rgba(255,255,255,0.03)" stroke-width="1"></line><line x1="250" y1="0" x2="250" y2="450" stroke="rgba(255,255,255,0.03)" stroke-width="1"></line><line x1="325" y1="0" x2="325" y2="450" stroke="rgba(255,255,255,0.03)" stroke-width="1"></line><line x1="400" y1="0" x2="400" y2="450" stroke="rgba(255,255,255,0.03)" stroke-width="1"></line><line x1="475" y1="0" x2="475" y2="450" stroke="rgba(255,255,255,0.03)" stroke-width="1"></line><line x1="550" y1="0" x2="550" y2="450" stroke="rgba(255,255,255,0.03)" stroke-width="1"></line><line x1="625" y1="0" x2="625" y2="450" stroke="rgba(255,255,255,0.03)" stroke-width="1"></line><line x1="700" y1="0" x2="700" y2="450" stroke="rgba(255,255,255,0.03)" stroke-width="1"></line>
  <line x1="0" y1="0" x2="800" y2="0" stroke="rgba(255,255,255,0.03)" stroke-width="1"></line><line x1="0" y1="75" x2="800" y2="75" stroke="rgba(255,255,255,0.03)" stroke-width="1"></line><line x1="0" y1="150" x2="800" y2="150" stroke="rgba(255,255,255,0.03)" stroke-width="1"></line><line x1="0" y1="225" x2="800" y2="225" stroke="rgba(255,255,255,0.03)" stroke-width="1"></line><line x1="0" y1="300" x2="800" y2="300" stroke="rgba(255,255,255,0.03)" stroke-width="1"></line><line x1="0" y1="375" x2="800" y2="375" stroke="rgba(255,255,255,0.03)" stroke-width="1"></line><line x1="0" y1="450" x2="800" y2="450" stroke="rgba(255,255,255,0.03)" stroke-width="1"></line>

  
  
  <circle cx="140" cy="130" r="5" fill="#7b5cf6" opacity="0.8" filter="url(#glow)"></circle>
  <circle cx="140" cy="200" r="5" fill="#7b5cf6" opacity="0.8" filter="url(#glow)"></circle>
  <circle cx="140" cy="270" r="5" fill="#7b5cf6" opacity="0.6" filter="url(#glow)"></circle>
  <circle cx="140" cy="340" r="5" fill="#7b5cf6" opacity="0.5" filter="url(#glow)"></circle>

  
  <circle cx="280" cy="155" r="6" fill="#9b6cf6" opacity="0.9" filter="url(#glow)"></circle>
  <circle cx="280" cy="235" r="6" fill="#9b6cf6" opacity="0.9" filter="url(#glow)"></circle>
  <circle cx="280" cy="315" r="6" fill="#9b6cf6" opacity="0.7" filter="url(#glow)"></circle>

  
  <circle cx="420" cy="225" r="28" fill="none" stroke="#7b5cf6" stroke-width="1.5" opacity="0.6"></circle>
  <circle cx="420" cy="225" r="20" fill="none" stroke="#00d4c8" stroke-width="1" opacity="0.5"></circle>
  <circle cx="420" cy="225" r="10" fill="#7b5cf6" opacity="0.8" filter="url(#glow)"></circle>
  <circle cx="420" cy="225" r="4" fill="#fff" opacity="0.9"></circle>

  
  <circle cx="560" cy="155" r="6" fill="#00d4c8" opacity="0.9" filter="url(#glow)"></circle>
  <circle cx="560" cy="235" r="6" fill="#00d4c8" opacity="0.9" filter="url(#glow)"></circle>
  <circle cx="560" cy="315" r="6" fill="#00d4c8" opacity="0.7" filter="url(#glow)"></circle>

  
  <circle cx="680" cy="130" r="5" fill="#f060b0" opacity="0.8" filter="url(#glow)"></circle>
  <circle cx="680" cy="200" r="5" fill="#f060b0" opacity="0.8" filter="url(#glow)"></circle>
  <circle cx="680" cy="270" r="5" fill="#f060b0" opacity="0.6" filter="url(#glow)"></circle>
  <circle cx="680" cy="340" r="5" fill="#f060b0" opacity="0.5" filter="url(#glow)"></circle>

  
  <line x1="140" y1="130" x2="280" y2="155" stroke="#7b5cf6" stroke-width="0.8" opacity="0.25"></line><line x1="140" y1="130" x2="280" y2="235" stroke="#7b5cf6" stroke-width="0.8" opacity="0.25"></line><line x1="140" y1="200" x2="280" y2="155" stroke="#7b5cf6" stroke-width="0.8" opacity="0.25"></line><line x1="140" y1="200" x2="280" y2="235" stroke="#7b5cf6" stroke-width="0.8" opacity="0.25"></line><line x1="140" y1="200" x2="280" y2="315" stroke="#7b5cf6" stroke-width="0.8" opacity="0.25"></line><line x1="140" y1="270" x2="280" y2="235" stroke="#7b5cf6" stroke-width="0.8" opacity="0.25"></line><line x1="140" y1="270" x2="280" y2="315" stroke="#7b5cf6" stroke-width="0.8" opacity="0.25"></line><line x1="140" y1="340" x2="280" y2="315" stroke="#7b5cf6" stroke-width="0.8" opacity="0.25"></line>

  
  <line x1="280" y1="155" x2="420" y2="225" stroke="#9b6cf6" stroke-width="1" opacity="0.4"></line><line x1="280" y1="235" x2="420" y2="225" stroke="#9b6cf6" stroke-width="1" opacity="0.4"></line><line x1="280" y1="315" x2="420" y2="225" stroke="#9b6cf6" stroke-width="1" opacity="0.4"></line>

  
  <line x1="420" y1="225" x2="560" y2="155" stroke="#00d4c8" stroke-width="1" opacity="0.4"></line><line x1="420" y1="225" x2="560" y2="235" stroke="#00d4c8" stroke-width="1" opacity="0.4"></line><line x1="420" y1="225" x2="560" y2="315" stroke="#00d4c8" stroke-width="1" opacity="0.4"></line>

  
  <line x1="560" y1="155" x2="680" y2="130" stroke="#f060b0" stroke-width="0.8" opacity="0.25"></line><line x1="560" y1="155" x2="680" y2="200" stroke="#f060b0" stroke-width="0.8" opacity="0.25"></line><line x1="560" y1="235" x2="680" y2="200" stroke="#f060b0" stroke-width="0.8" opacity="0.25"></line><line x1="560" y1="235" x2="680" y2="270" stroke="#f060b0" stroke-width="0.8" opacity="0.25"></line><line x1="560" y1="315" x2="680" y2="270" stroke="#f060b0" stroke-width="0.8" opacity="0.25"></line><line x1="560" y1="315" x2="680" y2="340" stroke="#f060b0" stroke-width="0.8" opacity="0.25"></line>

  
  <circle cx="200" cy="90" r="2" fill="#00d4c8" opacity="0.6"></circle>
  <circle cx="350" cy="60" r="1.5" fill="#7b5cf6" opacity="0.7"></circle>
  <circle cx="500" cy="80" r="2" fill="#f060b0" opacity="0.5"></circle>
  <circle cx="650" cy="70" r="1.5" fill="#00d4c8" opacity="0.6"></circle>
  <circle cx="160" cy="400" r="2" fill="#7b5cf6" opacity="0.4"></circle>
  <circle cx="340" cy="410" r="1.5" fill="#f060b0" opacity="0.5"></circle>
  <circle cx="580" cy="400" r="2" fill="#00d4c8" opacity="0.4"></circle>
  <circle cx="720" cy="390" r="1.5" fill="#7b5cf6" opacity="0.5"></circle>

  
  <text x="80" y="88" font-family="monospace" font-size="9" fill="#7b5cf6" opacity="0.7" letter-spacing="2">INPUT</text>
  <text x="378" y="272" font-family="monospace" font-size="8" fill="#fff" opacity="0.5" letter-spacing="1">LLM</text>
  <text x="646" y="88" font-family="monospace" font-size="9" fill="#f060b0" opacity="0.7" letter-spacing="2">OUTPUT</text>

  
  <text x="30" y="430" font-family="monospace" font-size="8" fill="#00d4c8" opacity="0.3" letter-spacing="3">BRAND_INSIGHT → AI_AUGMENT → HUMAN_STORY</text>

  
  <rect width="800" height="450" fill="none" stroke="rgba(255,255,255,0.02)" stroke-width="0"></rect>
  <line x1="0" y1="0" x2="800" y2="0" stroke="rgba(0,0,0,0.08)" stroke-width="0.5"></line><line x1="0" y1="2" x2="800" y2="2" stroke="rgba(0,0,0,0.08)" stroke-width="0.5"></line><line x1="0" y1="4" x2="800" y2="4" stroke="rgba(0,0,0,0.08)" stroke-width="0.5"></line><line x1="0" y1="6" x2="800" y2="6" stroke="rgba(0,0,0,0.08)" stroke-width="0.5"></line><line x1="0" y1="8" x2="800" y2="8" stroke="rgba(0,0,0,0.08)" stroke-width="0.5"></line><line x1="0" y1="10" x2="800" y2="10" stroke="rgba(0,0,0,0.08)" stroke-width="0.5"></line><line x1="0" y1="12" x2="800" y2="12" stroke="rgba(0,0,0,0.08)" stroke-width="0.5"></line><line x1="0" y1="14" x2="800" y2="14" stroke="rgba(0,0,0,0.08)" stroke-width="0.5"></line><line x1="0" y1="16" x2="800" y2="16" stroke="rgba(0,0,0,0.08)" stroke-width="0.5"></line><line x1="0" y1="18" x2="800" y2="18" stroke="rgba(0,0,0,0.08)" stroke-width="0.5"></line><line x1="0" y1="20" x2="800" y2="20" stroke="rgba(0,0,0,0.08)" stroke-width="0.5"></line><line x1="0" y1="22" x2="800" y2="22" stroke="rgba(0,0,0,0.08)" stroke-width="0.5"></line><line x1="0" y1="24" x2="800" y2="24" stroke="rgba(0,0,0,0.08)" stroke-width="0.5"></line><line x1="0" y1="26" x2="800" y2="26" stroke="rgba(0,0,0,0.08)" stroke-width="0.5"></line><line x1="0" y1="28" x2="800" y2="28" stroke="rgba(0,0,0,0.08)" stroke-width="0.5"></line><line x1="0" y1="30" x2="800" y2="30" stroke="rgba(0,0,0,0.08)" stroke-width="0.5"></line><line x1="0" y1="32" x2="800" y2="32" stroke="rgba(0,0,0,0.08)" stroke-width="0.5"></line><line x1="0" y1="34" x2="800" y2="34" stroke="rgba(0,0,0,0.08)" stroke-width="0.5"></line><line x1="0" y1="36" x2="800" y2="36" stroke="rgba(0,0,0,0.08)" stroke-width="0.5"></line><line x1="0" y1="38" x2="800" y2="38" stroke="rgba(0,0,0,0.08)" stroke-width="0.5"></line><line x1="0" y1="40" x2="800" y2="40" stroke="rgba(0,0,0,0.08)" stroke-width="0.5"></line><line x1="0" y1="42" x2="800" y2="42" stroke="rgba(0,0,0,0.08)" stroke-width="0.5"></line><line x1="0" y1="44" x2="800" y2="44" stroke="rgba(0,0,0,0.08)" stroke-width="0.5"></line><line x1="0" y1="46" x2="800" y2="46" stroke="rgba(0,0,0,0.08)" stroke-width="0.5"></line><line x1="0" y1="48" x2="800" y2="48" stroke="rgba(0,0,0,0.08)" stroke-width="0.5"></line><line x1="0" y1="50" x2="800" y2="50" stroke="rgba(0,0,0,0.08)" stroke-width="0.5"></line><line x1="0" y1="52" x2="800" y2="52" stroke="rgba(0,0,0,0.08)" stroke-width="0.5"></line><line x1="0" y1="54" x2="800" y2="54" stroke="rgba(0,0,0,0.08)" stroke-width="0.5"></line><line x1="0" y1="56" x2="800" y2="56" stroke="rgba(0,0,0,0.08)" stroke-width="0.5"></line><line x1="0" y1="58" x2="800" y2="58" stroke="rgba(0,0,0,0.08)" stroke-width="0.5"></line><line x1="0" y1="60" x2="800" y2="60" stroke="rgba(0,0,0,0.08)" stroke-width="0.5"></line><line x1="0" y1="62" x2="800" y2="62" stroke="rgba(0,0,0,0.08)" stroke-width="0.5"></line><line x1="0" y1="64" x2="800" y2="64" stroke="rgba(0,0,0,0.08)" stroke-width="0.5"></line><line x1="0" y1="66" x2="800" y2="66" stroke="rgba(0,0,0,0.08)" stroke-width="0.5"></line><line x1="0" y1="68" x2="800" y2="68" stroke="rgba(0,0,0,0.08)" stroke-width="0.5"></line><line x1="0" y1="70" x2="800" y2="70" stroke="rgba(0,0,0,0.08)" stroke-width="0.5"></line><line x1="0" y1="72" x2="800" y2="72" stroke="rgba(0,0,0,0.08)" stroke-width="0.5"></line><line x1="0" y1="74" x2="800" y2="74" stroke="rgba(0,0,0,0.08)" stroke-width="0.5"></line><line x1="0" y1="76" x2="800" y2="76" stroke="rgba(0,0,0,0.08)" stroke-width="0.5"></line><line x1="0" y1="78" x2="800" y2="78" stroke="rgba(0,0,0,0.08)" stroke-width="0.5"></line><line x1="0" y1="80" x2="800" y2="80" stroke="rgba(0,0,0,0.08)" stroke-width="0.5"></line><line x1="0" y1="82" x2="800" y2="82" stroke="rgba(0,0,0,0.08)" stroke-width="0.5"></line><line x1="0" y1="84" x2="800" y2="84" stroke="rgba(0,0,0,0.08)" stroke-width="0.5"></line><line x1="0" y1="86" x2="800" y2="86" stroke="rgba(0,0,0,0.08)" stroke-width="0.5"></line><line x1="0" y1="88" x2="800" y2="88" stroke="rgba(0,0,0,0.08)" stroke-width="0.5"></line><line x1="0" y1="90" x2="800" y2="90" stroke="rgba(0,0,0,0.08)" stroke-width="0.5"></line><line x1="0" y1="92" x2="800" y2="92" stroke="rgba(0,0,0,0.08)" stroke-width="0.5"></line><line x1="0" y1="94" x2="800" y2="94" stroke="rgba(0,0,0,0.08)" stroke-width="0.5"></line><line x1="0" y1="96" x2="800" y2="96" stroke="rgba(0,0,0,0.08)" stroke-width="0.5"></line><line x1="0" y1="98" x2="800" y2="98" stroke="rgba(0,0,0,0.08)" stroke-width="0.5"></line><line x1="0" y1="100" x2="800" y2="100" stroke="rgba(0,0,0,0.08)" stroke-width="0.5"></line><line x1="0" y1="102" x2="800" y2="102" stroke="rgba(0,0,0,0.08)" stroke-width="0.5"></line><line x1="0" y1="104" x2="800" y2="104" stroke="rgba(0,0,0,0.08)" stroke-width="0.5"></line><line x1="0" y1="106" x2="800" y2="106" stroke="rgba(0,0,0,0.08)" stroke-width="0.5"></line><line x1="0" y1="108" x2="800" y2="108" stroke="rgba(0,0,0,0.08)" stroke-width="0.5"></line><line x1="0" y1="110" x2="800" y2="110" stroke="rgba(0,0,0,0.08)" stroke-width="0.5"></line><line x1="0" y1="112" x2="800" y2="112" stroke="rgba(0,0,0,0.08)" stroke-width="0.5"></line><line x1="0" y1="114" x2="800" y2="114" stroke="rgba(0,0,0,0.08)" stroke-width="0.5"></line><line x1="0" y1="116" x2="800" y2="116" stroke="rgba(0,0,0,0.08)" stroke-width="0.5"></line><line x1="0" y1="118" x2="800" y2="118" stroke="rgba(0,0,0,0.08)" stroke-width="0.5"></line><line x1="0" y1="120" x2="800" y2="120" stroke="rgba(0,0,0,0.08)" stroke-width="0.5"></line><line x1="0" y1="122" x2="800" y2="122" stroke="rgba(0,0,0,0.08)" stroke-width="0.5"></line><line x1="0" y1="124" x2="800" y2="124" stroke="rgba(0,0,0,0.08)" stroke-width="0.5"></line><line x1="0" y1="126" x2="800" y2="126" stroke="rgba(0,0,0,0.08)" stroke-width="0.5"></line><line x1="0" y1="128" x2="800" y2="128" stroke="rgba(0,0,0,0.08)" stroke-width="0.5"></line><line x1="0" y1="130" x2="800" y2="130" stroke="rgba(0,0,0,0.08)" stroke-width="0.5"></line><line x1="0" y1="132" x2="800" y2="132" stroke="rgba(0,0,0,0.08)" stroke-width="0.5"></line><line x1="0" y1="134" x2="800" y2="134" stroke="rgba(0,0,0,0.08)" stroke-width="0.5"></line><line x1="0" y1="136" x2="800" y2="136" stroke="rgba(0,0,0,0.08)" stroke-width="0.5"></line><line x1="0" y1="138" x2="800" y2="138" stroke="rgba(0,0,0,0.08)" stroke-width="0.5"></line><line x1="0" y1="140" x2="800" y2="140" stroke="rgba(0,0,0,0.08)" stroke-width="0.5"></line><line x1="0" y1="142" x2="800" y2="142" stroke="rgba(0,0,0,0.08)" stroke-width="0.5"></line><line x1="0" y1="144" x2="800" y2="144" stroke="rgba(0,0,0,0.08)" stroke-width="0.5"></line><line x1="0" y1="146" x2="800" y2="146" stroke="rgba(0,0,0,0.08)" stroke-width="0.5"></line><line x1="0" y1="148" x2="800" y2="148" stroke="rgba(0,0,0,0.08)" stroke-width="0.5"></line><line x1="0" y1="150" x2="800" y2="150" stroke="rgba(0,0,0,0.08)" stroke-width="0.5"></line><line x1="0" y1="152" x2="800" y2="152" stroke="rgba(0,0,0,0.08)" stroke-width="0.5"></line><line x1="0" y1="154" x2="800" y2="154" stroke="rgba(0,0,0,0.08)" stroke-width="0.5"></line><line x1="0" y1="156" x2="800" y2="156" stroke="rgba(0,0,0,0.08)" stroke-width="0.5"></line><line x1="0" y1="158" x2="800" y2="158" stroke="rgba(0,0,0,0.08)" stroke-width="0.5"></line><line x1="0" y1="160" x2="800" y2="160" stroke="rgba(0,0,0,0.08)" stroke-width="0.5"></line><line x1="0" y1="162" x2="800" y2="162" stroke="rgba(0,0,0,0.08)" stroke-width="0.5"></line><line x1="0" y1="164" x2="800" y2="164" stroke="rgba(0,0,0,0.08)" stroke-width="0.5"></line><line x1="0" y1="166" x2="800" y2="166" stroke="rgba(0,0,0,0.08)" stroke-width="0.5"></line><line x1="0" y1="168" x2="800" y2="168" stroke="rgba(0,0,0,0.08)" stroke-width="0.5"></line><line x1="0" y1="170" x2="800" y2="170" stroke="rgba(0,0,0,0.08)" stroke-width="0.5"></line><line x1="0" y1="172" x2="800" y2="172" stroke="rgba(0,0,0,0.08)" stroke-width="0.5"></line><line x1="0" y1="174" x2="800" y2="174" stroke="rgba(0,0,0,0.08)" stroke-width="0.5"></line><line x1="0" y1="176" x2="800" y2="176" stroke="rgba(0,0,0,0.08)" stroke-width="0.5"></line><line x1="0" y1="178" x2="800" y2="178" stroke="rgba(0,0,0,0.08)" stroke-width="0.5"></line><line x1="0" y1="180" x2="800" y2="180" stroke="rgba(0,0,0,0.08)" stroke-width="0.5"></line><line x1="0" y1="182" x2="800" y2="182" stroke="rgba(0,0,0,0.08)" stroke-width="0.5"></line><line x1="0" y1="184" x2="800" y2="184" stroke="rgba(0,0,0,0.08)" stroke-width="0.5"></line><line x1="0" y1="186" x2="800" y2="186" stroke="rgba(0,0,0,0.08)" stroke-width="0.5"></line><line x1="0" y1="188" x2="800" y2="188" stroke="rgba(0,0,0,0.08)" stroke-width="0.5"></line><line x1="0" y1="190" x2="800" y2="190" stroke="rgba(0,0,0,0.08)" stroke-width="0.5"></line><line x1="0" y1="192" x2="800" y2="192" stroke="rgba(0,0,0,0.08)" stroke-width="0.5"></line><line x1="0" y1="194" x2="800" y2="194" stroke="rgba(0,0,0,0.08)" stroke-width="0.5"></line><line x1="0" y1="196" x2="800" y2="196" stroke="rgba(0,0,0,0.08)" stroke-width="0.5"></line><line x1="0" y1="198" x2="800" y2="198" stroke="rgba(0,0,0,0.08)" stroke-width="0.5"></line><line x1="0" y1="200" x2="800" y2="200" stroke="rgba(0,0,0,0.08)" stroke-width="0.5"></line><line x1="0" y1="202" x2="800" y2="202" stroke="rgba(0,0,0,0.08)" stroke-width="0.5"></line><line x1="0" y1="204" x2="800" y2="204" stroke="rgba(0,0,0,0.08)" stroke-width="0.5"></line><line x1="0" y1="206" x2="800" y2="206" stroke="rgba(0,0,0,0.08)" stroke-width="0.5"></line><line x1="0" y1="208" x2="800" y2="208" stroke="rgba(0,0,0,0.08)" stroke-width="0.5"></line><line x1="0" y1="210" x2="800" y2="210" stroke="rgba(0,0,0,0.08)" stroke-width="0.5"></line><line x1="0" y1="212" x2="800" y2="212" stroke="rgba(0,0,0,0.08)" stroke-width="0.5"></line><line x1="0" y1="214" x2="800" y2="214" stroke="rgba(0,0,0,0.08)" stroke-width="0.5"></line><line x1="0" y1="216" x2="800" y2="216" stroke="rgba(0,0,0,0.08)" stroke-width="0.5"></line><line x1="0" y1="218" x2="800" y2="218" stroke="rgba(0,0,0,0.08)" stroke-width="0.5"></line><line x1="0" y1="220" x2="800" y2="220" stroke="rgba(0,0,0,0.08)" stroke-width="0.5"></line><line x1="0" y1="222" x2="800" y2="222" stroke="rgba(0,0,0,0.08)" stroke-width="0.5"></line><line x1="0" y1="224" x2="800" y2="224" stroke="rgba(0,0,0,0.08)" stroke-width="0.5"></line><line x1="0" y1="226" x2="800" y2="226" stroke="rgba(0,0,0,0.08)" stroke-width="0.5"></line><line x1="0" y1="228" x2="800" y2="228" stroke="rgba(0,0,0,0.08)" stroke-width="0.5"></line><line x1="0" y1="230" x2="800" y2="230" stroke="rgba(0,0,0,0.08)" stroke-width="0.5"></line><line x1="0" y1="232" x2="800" y2="232" stroke="rgba(0,0,0,0.08)" stroke-width="0.5"></line><line x1="0" y1="234" x2="800" y2="234" stroke="rgba(0,0,0,0.08)" stroke-width="0.5"></line><line x1="0" y1="236" x2="800" y2="236" stroke="rgba(0,0,0,0.08)" stroke-width="0.5"></line><line x1="0" y1="238" x2="800" y2="238" stroke="rgba(0,0,0,0.08)" stroke-width="0.5"></line><line x1="0" y1="240" x2="800" y2="240" stroke="rgba(0,0,0,0.08)" stroke-width="0.5"></line><line x1="0" y1="242" x2="800" y2="242" stroke="rgba(0,0,0,0.08)" stroke-width="0.5"></line><line x1="0" y1="244" x2="800" y2="244" stroke="rgba(0,0,0,0.08)" stroke-width="0.5"></line><line x1="0" y1="246" x2="800" y2="246" stroke="rgba(0,0,0,0.08)" stroke-width="0.5"></line><line x1="0" y1="248" x2="800" y2="248" stroke="rgba(0,0,0,0.08)" stroke-width="0.5"></line><line x1="0" y1="250" x2="800" y2="250" stroke="rgba(0,0,0,0.08)" stroke-width="0.5"></line><line x1="0" y1="252" x2="800" y2="252" stroke="rgba(0,0,0,0.08)" stroke-width="0.5"></line><line x1="0" y1="254" x2="800" y2="254" stroke="rgba(0,0,0,0.08)" stroke-width="0.5"></line><line x1="0" y1="256" x2="800" y2="256" stroke="rgba(0,0,0,0.08)" stroke-width="0.5"></line><line x1="0" y1="258" x2="800" y2="258" stroke="rgba(0,0,0,0.08)" stroke-width="0.5"></line><line x1="0" y1="260" x2="800" y2="260" stroke="rgba(0,0,0,0.08)" stroke-width="0.5"></line><line x1="0" y1="262" x2="800" y2="262" stroke="rgba(0,0,0,0.08)" stroke-width="0.5"></line><line x1="0" y1="264" x2="800" y2="264" stroke="rgba(0,0,0,0.08)" stroke-width="0.5"></line><line x1="0" y1="266" x2="800" y2="266" stroke="rgba(0,0,0,0.08)" stroke-width="0.5"></line><line x1="0" y1="268" x2="800" y2="268" stroke="rgba(0,0,0,0.08)" stroke-width="0.5"></line><line x1="0" y1="270" x2="800" y2="270" stroke="rgba(0,0,0,0.08)" stroke-width="0.5"></line><line x1="0" y1="272" x2="800" y2="272" stroke="rgba(0,0,0,0.08)" stroke-width="0.5"></line><line x1="0" y1="274" x2="800" y2="274" stroke="rgba(0,0,0,0.08)" stroke-width="0.5"></line><line x1="0" y1="276" x2="800" y2="276" stroke="rgba(0,0,0,0.08)" stroke-width="0.5"></line><line x1="0" y1="278" x2="800" y2="278" stroke="rgba(0,0,0,0.08)" stroke-width="0.5"></line><line x1="0" y1="280" x2="800" y2="280" stroke="rgba(0,0,0,0.08)" stroke-width="0.5"></line><line x1="0" y1="282" x2="800" y2="282" stroke="rgba(0,0,0,0.08)" stroke-width="0.5"></line><line x1="0" y1="284" x2="800" y2="284" stroke="rgba(0,0,0,0.08)" stroke-width="0.5"></line><line x1="0" y1="286" x2="800" y2="286" stroke="rgba(0,0,0,0.08)" stroke-width="0.5"></line><line x1="0" y1="288" x2="800" y2="288" stroke="rgba(0,0,0,0.08)" stroke-width="0.5"></line><line x1="0" y1="290" x2="800" y2="290" stroke="rgba(0,0,0,0.08)" stroke-width="0.5"></line><line x1="0" y1="292" x2="800" y2="292" stroke="rgba(0,0,0,0.08)" stroke-width="0.5"></line><line x1="0" y1="294" x2="800" y2="294" stroke="rgba(0,0,0,0.08)" stroke-width="0.5"></line><line x1="0" y1="296" x2="800" y2="296" stroke="rgba(0,0,0,0.08)" stroke-width="0.5"></line><line x1="0" y1="298" x2="800" y2="298" stroke="rgba(0,0,0,0.08)" stroke-width="0.5"></line><line x1="0" y1="300" x2="800" y2="300" stroke="rgba(0,0,0,0.08)" stroke-width="0.5"></line><line x1="0" y1="302" x2="800" y2="302" stroke="rgba(0,0,0,0.08)" stroke-width="0.5"></line><line x1="0" y1="304" x2="800" y2="304" stroke="rgba(0,0,0,0.08)" stroke-width="0.5"></line><line x1="0" y1="306" x2="800" y2="306" stroke="rgba(0,0,0,0.08)" stroke-width="0.5"></line><line x1="0" y1="308" x2="800" y2="308" stroke="rgba(0,0,0,0.08)" stroke-width="0.5"></line><line x1="0" y1="310" x2="800" y2="310" stroke="rgba(0,0,0,0.08)" stroke-width="0.5"></line><line x1="0" y1="312" x2="800" y2="312" stroke="rgba(0,0,0,0.08)" stroke-width="0.5"></line><line x1="0" y1="314" x2="800" y2="314" stroke="rgba(0,0,0,0.08)" stroke-width="0.5"></line><line x1="0" y1="316" x2="800" y2="316" stroke="rgba(0,0,0,0.08)" stroke-width="0.5"></line><line x1="0" y1="318" x2="800" y2="318" stroke="rgba(0,0,0,0.08)" stroke-width="0.5"></line><line x1="0" y1="320" x2="800" y2="320" stroke="rgba(0,0,0,0.08)" stroke-width="0.5"></line><line x1="0" y1="322" x2="800" y2="322" stroke="rgba(0,0,0,0.08)" stroke-width="0.5"></line><line x1="0" y1="324" x2="800" y2="324" stroke="rgba(0,0,0,0.08)" stroke-width="0.5"></line><line x1="0" y1="326" x2="800" y2="326" stroke="rgba(0,0,0,0.08)" stroke-width="0.5"></line><line x1="0" y1="328" x2="800" y2="328" stroke="rgba(0,0,0,0.08)" stroke-width="0.5"></line><line x1="0" y1="330" x2="800" y2="330" stroke="rgba(0,0,0,0.08)" stroke-width="0.5"></line><line x1="0" y1="332" x2="800" y2="332" stroke="rgba(0,0,0,0.08)" stroke-width="0.5"></line><line x1="0" y1="334" x2="800" y2="334" stroke="rgba(0,0,0,0.08)" stroke-width="0.5"></line><line x1="0" y1="336" x2="800" y2="336" stroke="rgba(0,0,0,0.08)" stroke-width="0.5"></line><line x1="0" y1="338" x2="800" y2="338" stroke="rgba(0,0,0,0.08)" stroke-width="0.5"></line><line x1="0" y1="340" x2="800" y2="340" stroke="rgba(0,0,0,0.08)" stroke-width="0.5"></line><line x1="0" y1="342" x2="800" y2="342" stroke="rgba(0,0,0,0.08)" stroke-width="0.5"></line><line x1="0" y1="344" x2="800" y2="344" stroke="rgba(0,0,0,0.08)" stroke-width="0.5"></line><line x1="0" y1="346" x2="800" y2="346" stroke="rgba(0,0,0,0.08)" stroke-width="0.5"></line><line x1="0" y1="348" x2="800" y2="348" stroke="rgba(0,0,0,0.08)" stroke-width="0.5"></line><line x1="0" y1="350" x2="800" y2="350" stroke="rgba(0,0,0,0.08)" stroke-width="0.5"></line><line x1="0" y1="352" x2="800" y2="352" stroke="rgba(0,0,0,0.08)" stroke-width="0.5"></line><line x1="0" y1="354" x2="800" y2="354" stroke="rgba(0,0,0,0.08)" stroke-width="0.5"></line><line x1="0" y1="356" x2="800" y2="356" stroke="rgba(0,0,0,0.08)" stroke-width="0.5"></line><line x1="0" y1="358" x2="800" y2="358" stroke="rgba(0,0,0,0.08)" stroke-width="0.5"></line><line x1="0" y1="360" x2="800" y2="360" stroke="rgba(0,0,0,0.08)" stroke-width="0.5"></line><line x1="0" y1="362" x2="800" y2="362" stroke="rgba(0,0,0,0.08)" stroke-width="0.5"></line><line x1="0" y1="364" x2="800" y2="364" stroke="rgba(0,0,0,0.08)" stroke-width="0.5"></line><line x1="0" y1="366" x2="800" y2="366" stroke="rgba(0,0,0,0.08)" stroke-width="0.5"></line><line x1="0" y1="368" x2="800" y2="368" stroke="rgba(0,0,0,0.08)" stroke-width="0.5"></line><line x1="0" y1="370" x2="800" y2="370" stroke="rgba(0,0,0,0.08)" stroke-width="0.5"></line><line x1="0" y1="372" x2="800" y2="372" stroke="rgba(0,0,0,0.08)" stroke-width="0.5"></line><line x1="0" y1="374" x2="800" y2="374" stroke="rgba(0,0,0,0.08)" stroke-width="0.5"></line><line x1="0" y1="376" x2="800" y2="376" stroke="rgba(0,0,0,0.08)" stroke-width="0.5"></line><line x1="0" y1="378" x2="800" y2="378" stroke="rgba(0,0,0,0.08)" stroke-width="0.5"></line><line x1="0" y1="380" x2="800" y2="380" stroke="rgba(0,0,0,0.08)" stroke-width="0.5"></line><line x1="0" y1="382" x2="800" y2="382" stroke="rgba(0,0,0,0.08)" stroke-width="0.5"></line><line x1="0" y1="384" x2="800" y2="384" stroke="rgba(0,0,0,0.08)" stroke-width="0.5"></line><line x1="0" y1="386" x2="800" y2="386" stroke="rgba(0,0,0,0.08)" stroke-width="0.5"></line><line x1="0" y1="388" x2="800" y2="388" stroke="rgba(0,0,0,0.08)" stroke-width="0.5"></line><line x1="0" y1="390" x2="800" y2="390" stroke="rgba(0,0,0,0.08)" stroke-width="0.5"></line><line x1="0" y1="392" x2="800" y2="392" stroke="rgba(0,0,0,0.08)" stroke-width="0.5"></line><line x1="0" y1="394" x2="800" y2="394" stroke="rgba(0,0,0,0.08)" stroke-width="0.5"></line><line x1="0" y1="396" x2="800" y2="396" stroke="rgba(0,0,0,0.08)" stroke-width="0.5"></line><line x1="0" y1="398" x2="800" y2="398" stroke="rgba(0,0,0,0.08)" stroke-width="0.5"></line><line x1="0" y1="400" x2="800" y2="400" stroke="rgba(0,0,0,0.08)" stroke-width="0.5"></line><line x1="0" y1="402" x2="800" y2="402" stroke="rgba(0,0,0,0.08)" stroke-width="0.5"></line><line x1="0" y1="404" x2="800" y2="404" stroke="rgba(0,0,0,0.08)" stroke-width="0.5"></line><line x1="0" y1="406" x2="800" y2="406" stroke="rgba(0,0,0,0.08)" stroke-width="0.5"></line><line x1="0" y1="408" x2="800" y2="408" stroke="rgba(0,0,0,0.08)" stroke-width="0.5"></line><line x1="0" y1="410" x2="800" y2="410" stroke="rgba(0,0,0,0.08)" stroke-width="0.5"></line><line x1="0" y1="412" x2="800" y2="412" stroke="rgba(0,0,0,0.08)" stroke-width="0.5"></line><line x1="0" y1="414" x2="800" y2="414" stroke="rgba(0,0,0,0.08)" stroke-width="0.5"></line><line x1="0" y1="416" x2="800" y2="416" stroke="rgba(0,0,0,0.08)" stroke-width="0.5"></line><line x1="0" y1="418" x2="800" y2="418" stroke="rgba(0,0,0,0.08)" stroke-width="0.5"></line><line x1="0" y1="420" x2="800" y2="420" stroke="rgba(0,0,0,0.08)" stroke-width="0.5"></line><line x1="0" y1="422" x2="800" y2="422" stroke="rgba(0,0,0,0.08)" stroke-width="0.5"></line><line x1="0" y1="424" x2="800" y2="424" stroke="rgba(0,0,0,0.08)" stroke-width="0.5"></line><line x1="0" y1="426" x2="800" y2="426" stroke="rgba(0,0,0,0.08)" stroke-width="0.5"></line><line x1="0" y1="428" x2="800" y2="428" stroke="rgba(0,0,0,0.08)" stroke-width="0.5"></line><line x1="0" y1="430" x2="800" y2="430" stroke="rgba(0,0,0,0.08)" stroke-width="0.5"></line><line x1="0" y1="432" x2="800" y2="432" stroke="rgba(0,0,0,0.08)" stroke-width="0.5"></line><line x1="0" y1="434" x2="800" y2="434" stroke="rgba(0,0,0,0.08)" stroke-width="0.5"></line><line x1="0" y1="436" x2="800" y2="436" stroke="rgba(0,0,0,0.08)" stroke-width="0.5"></line><line x1="0" y1="438" x2="800" y2="438" stroke="rgba(0,0,0,0.08)" stroke-width="0.5"></line><line x1="0" y1="440" x2="800" y2="440" stroke="rgba(0,0,0,0.08)" stroke-width="0.5"></line><line x1="0" y1="442" x2="800" y2="442" stroke="rgba(0,0,0,0.08)" stroke-width="0.5"></line><line x1="0" y1="444" x2="800" y2="444" stroke="rgba(0,0,0,0.08)" stroke-width="0.5"></line><line x1="0" y1="446" x2="800" y2="446" stroke="rgba(0,0,0,0.08)" stroke-width="0.5"></line><line x1="0" y1="448" x2="800" y2="448" stroke="rgba(0,0,0,0.08)" stroke-width="0.5"></line>
</svg>
